<mxfile host="app.diagrams.net" modified="2021-04-19T04:24:20.312Z" agent="5.0 (X11)" etag="NFOsii2FOwj2rHJFxT0D" version="14.6.1" type="github">
  <diagram id="nLshfB_gFY47B3Qym1dY" name="第 1 页">
    <mxGraphModel dx="1350" dy="924" grid="1" gridSize="10" guides="1" tooltips="1" connect="1" arrows="1" fold="1" page="1" pageScale="1" pageWidth="850" pageHeight="1100" background="#ffffff" math="0" shadow="0">
      <root>
        <mxCell id="0" />
        <mxCell id="1" parent="0" />
        <mxCell id="Ht7AXFtxAu75nitfYA8T-30" value="" style="rounded=0;whiteSpace=wrap;html=1;fontSize=14;strokeWidth=1;dashed=1;fillColor=#E6E6E6;" parent="1" vertex="1">
          <mxGeometry x="40" y="40" width="560" height="240" as="geometry" />
        </mxCell>
        <mxCell id="Ht7AXFtxAu75nitfYA8T-1" value="JSON Parser" style="rounded=0;whiteSpace=wrap;html=1;fillColor=#dae8fc;strokeColor=#6c8ebf;gradientColor=#7ea6e0;" parent="1" vertex="1">
          <mxGeometry x="61" y="94" width="80" height="40" as="geometry" />
        </mxCell>
        <mxCell id="Ht7AXFtxAu75nitfYA8T-3" value="" style="endArrow=none;html=1;startArrow=none;" parent="1" source="Ht7AXFtxAu75nitfYA8T-8" edge="1">
          <mxGeometry width="50" height="50" relative="1" as="geometry">
            <mxPoint x="40" y="320" as="sourcePoint" />
            <mxPoint x="720" y="320" as="targetPoint" />
          </mxGeometry>
        </mxCell>
        <mxCell id="Ht7AXFtxAu75nitfYA8T-4" value="User Space" style="text;html=1;align=center;verticalAlign=middle;resizable=0;points=[];autosize=1;strokeColor=none;strokeWidth=1;fontSize=16;" parent="1" vertex="1">
          <mxGeometry x="45" y="290" width="100" height="20" as="geometry" />
        </mxCell>
        <mxCell id="Ht7AXFtxAu75nitfYA8T-5" value="&lt;div style=&quot;font-size: 16px;&quot;&gt;Kernel Space&lt;/div&gt;" style="text;html=1;align=center;verticalAlign=middle;resizable=0;points=[];autosize=1;strokeColor=none;fontSize=16;" parent="1" vertex="1">
          <mxGeometry x="40" y="340" width="110" height="20" as="geometry" />
        </mxCell>
        <mxCell id="Ht7AXFtxAu75nitfYA8T-11" value="LM75 driver" style="rounded=1;whiteSpace=wrap;html=1;fontSize=13;strokeWidth=1;fillColor=#cdeb8b;strokeColor=#36393d;" parent="1" vertex="1">
          <mxGeometry x="120" y="430" width="120" height="40" as="geometry" />
        </mxCell>
        <mxCell id="Ht7AXFtxAu75nitfYA8T-12" value="TMP432 driver" style="rounded=1;whiteSpace=wrap;html=1;fontSize=13;strokeWidth=1;fillColor=#cdeb8b;strokeColor=#36393d;" parent="1" vertex="1">
          <mxGeometry x="280" y="430" width="120" height="40" as="geometry" />
        </mxCell>
        <mxCell id="Ht7AXFtxAu75nitfYA8T-13" value="i2c client" style="rounded=1;whiteSpace=wrap;html=1;fontSize=13;strokeWidth=1;fillColor=#008a00;strokeColor=#005700;fontColor=#ffffff;" parent="1" vertex="1">
          <mxGeometry x="200" y="500" width="120" height="40" as="geometry" />
        </mxCell>
        <mxCell id="Ht7AXFtxAu75nitfYA8T-14" value="hwmon" style="rounded=1;whiteSpace=wrap;html=1;fontSize=13;strokeWidth=1;fillColor=#60a917;strokeColor=#2D7600;fontColor=#ffffff;" parent="1" vertex="1">
          <mxGeometry x="201" y="360" width="120" height="40" as="geometry" />
        </mxCell>
        <mxCell id="Ht7AXFtxAu75nitfYA8T-15" value="" style="shape=link;html=1;fontSize=13;" parent="1" edge="1">
          <mxGeometry width="100" relative="1" as="geometry">
            <mxPoint x="40" y="560" as="sourcePoint" />
            <mxPoint x="720" y="560" as="targetPoint" />
          </mxGeometry>
        </mxCell>
        <mxCell id="Ht7AXFtxAu75nitfYA8T-17" value="Hardware" style="text;html=1;align=center;verticalAlign=middle;resizable=0;points=[];autosize=1;strokeColor=none;fontSize=16;" parent="1" vertex="1">
          <mxGeometry x="45" y="580" width="80" height="20" as="geometry" />
        </mxCell>
        <mxCell id="Ht7AXFtxAu75nitfYA8T-19" value="Temperature sensor " style="shape=cube;whiteSpace=wrap;html=1;boundedLbl=1;backgroundOutline=1;darkOpacity=0.05;darkOpacity2=0.1;fontSize=14;strokeWidth=1;fillColor=#bac8d3;strokeColor=#23445d;" parent="1" vertex="1">
          <mxGeometry x="160" y="620" width="175" height="40" as="geometry" />
        </mxCell>
        <mxCell id="Ht7AXFtxAu75nitfYA8T-20" value="EEPROM" style="shape=cube;whiteSpace=wrap;html=1;boundedLbl=1;backgroundOutline=1;darkOpacity=0.05;darkOpacity2=0.1;fontSize=14;strokeWidth=1;fillColor=#647687;strokeColor=#314354;fontColor=#ffffff;" parent="1" vertex="1">
          <mxGeometry x="520" y="600" width="161" height="60" as="geometry" />
        </mxCell>
        <mxCell id="Ht7AXFtxAu75nitfYA8T-21" value="Data Cache" style="shape=datastore;whiteSpace=wrap;html=1;fontSize=12;strokeWidth=1;" parent="1" vertex="1">
          <mxGeometry x="487" y="166.75" width="62" height="66" as="geometry" />
        </mxCell>
        <mxCell id="Ht7AXFtxAu75nitfYA8T-23" value="EEPROM driver" style="rounded=1;whiteSpace=wrap;html=1;fontSize=13;strokeWidth=1;fillColor=#d5e8d4;strokeColor=#82b366;gradientColor=#97d077;" parent="1" vertex="1">
          <mxGeometry x="479" y="420" width="181" height="40" as="geometry" />
        </mxCell>
        <mxCell id="Ht7AXFtxAu75nitfYA8T-24" value="" style="edgeStyle=elbowEdgeStyle;elbow=vertical;endArrow=classic;html=1;fontSize=14;entryX=0.5;entryY=1;entryDx=0;entryDy=0;jumpStyle=gap;exitX=0;exitY=0;exitDx=77.5;exitDy=0;exitPerimeter=0;" parent="1" source="Ht7AXFtxAu75nitfYA8T-18" target="Ht7AXFtxAu75nitfYA8T-13" edge="1">
          <mxGeometry width="50" height="50" relative="1" as="geometry">
            <mxPoint x="215" y="580" as="sourcePoint" />
            <mxPoint x="265" y="530" as="targetPoint" />
            <Array as="points">
              <mxPoint x="240" y="570" />
            </Array>
          </mxGeometry>
        </mxCell>
        <mxCell id="Ht7AXFtxAu75nitfYA8T-32" value="" style="edgeStyle=elbowEdgeStyle;elbow=vertical;endArrow=classic;html=1;fontSize=14;jumpStyle=gap;exitX=0.464;exitY=1.05;exitDx=0;exitDy=0;exitPerimeter=0;" parent="1" source="Ht7AXFtxAu75nitfYA8T-23" edge="1">
          <mxGeometry width="50" height="50" relative="1" as="geometry">
            <mxPoint x="560" y="470" as="sourcePoint" />
            <mxPoint x="594.5" y="600" as="targetPoint" />
          </mxGeometry>
        </mxCell>
        <mxCell id="Ht7AXFtxAu75nitfYA8T-18" value="Temperature sensor " style="shape=cube;whiteSpace=wrap;html=1;boundedLbl=1;backgroundOutline=1;darkOpacity=0.05;darkOpacity2=0.1;fontSize=14;strokeWidth=1;fillColor=#bac8d3;strokeColor=#23445d;" parent="1" vertex="1">
          <mxGeometry x="160" y="590" width="175" height="40" as="geometry" />
        </mxCell>
        <mxCell id="Ht7AXFtxAu75nitfYA8T-36" value="" style="edgeStyle=segmentEdgeStyle;endArrow=classic;html=1;fontSize=14;entryX=0.47;entryY=-0.025;entryDx=0;entryDy=0;entryPerimeter=0;exitX=0.5;exitY=1;exitDx=0;exitDy=0;" parent="1" source="Ht7AXFtxAu75nitfYA8T-8" target="Ht7AXFtxAu75nitfYA8T-23" edge="1">
          <mxGeometry width="50" height="50" relative="1" as="geometry">
            <mxPoint x="500" y="370" as="sourcePoint" />
            <mxPoint x="590" y="330" as="targetPoint" />
            <Array as="points">
              <mxPoint x="518" y="380" />
              <mxPoint x="564" y="380" />
            </Array>
          </mxGeometry>
        </mxCell>
        <mxCell id="Ht7AXFtxAu75nitfYA8T-37" value="" style="edgeStyle=elbowEdgeStyle;elbow=vertical;endArrow=classic;html=1;fontSize=14;entryX=0.5;entryY=1;entryDx=0;entryDy=0;" parent="1" target="Ht7AXFtxAu75nitfYA8T-12" edge="1">
          <mxGeometry width="50" height="50" relative="1" as="geometry">
            <mxPoint x="282" y="499" as="sourcePoint" />
            <mxPoint x="335" y="460" as="targetPoint" />
            <Array as="points">
              <mxPoint x="310" y="490" />
              <mxPoint x="310" y="499" />
            </Array>
          </mxGeometry>
        </mxCell>
        <mxCell id="Ht7AXFtxAu75nitfYA8T-39" value="" style="edgeStyle=elbowEdgeStyle;elbow=vertical;endArrow=classic;html=1;fontSize=14;exitX=0.333;exitY=0;exitDx=0;exitDy=0;exitPerimeter=0;entryX=0.5;entryY=1;entryDx=0;entryDy=0;" parent="1" source="Ht7AXFtxAu75nitfYA8T-13" target="Ht7AXFtxAu75nitfYA8T-11" edge="1">
          <mxGeometry width="50" height="50" relative="1" as="geometry">
            <mxPoint x="240" y="490" as="sourcePoint" />
            <mxPoint x="190" y="460" as="targetPoint" />
            <Array as="points">
              <mxPoint x="210" y="490" />
            </Array>
          </mxGeometry>
        </mxCell>
        <mxCell id="Ht7AXFtxAu75nitfYA8T-40" value="" style="edgeStyle=elbowEdgeStyle;elbow=vertical;endArrow=classic;html=1;fontSize=14;entryX=0.25;entryY=1;entryDx=0;entryDy=0;exitX=0.5;exitY=0;exitDx=0;exitDy=0;" parent="1" source="Ht7AXFtxAu75nitfYA8T-11" target="Ht7AXFtxAu75nitfYA8T-14" edge="1">
          <mxGeometry width="50" height="50" relative="1" as="geometry">
            <mxPoint x="180" y="420" as="sourcePoint" />
            <mxPoint x="230" y="370" as="targetPoint" />
            <Array as="points" />
          </mxGeometry>
        </mxCell>
        <mxCell id="Ht7AXFtxAu75nitfYA8T-41" value="" style="edgeStyle=elbowEdgeStyle;elbow=vertical;endArrow=classic;html=1;fontSize=14;" parent="1" source="Ht7AXFtxAu75nitfYA8T-12" edge="1">
          <mxGeometry width="50" height="50" relative="1" as="geometry">
            <mxPoint x="321" y="440" as="sourcePoint" />
            <mxPoint x="281" y="400" as="targetPoint" />
          </mxGeometry>
        </mxCell>
        <mxCell id="Ht7AXFtxAu75nitfYA8T-42" value="" style="endArrow=classic;html=1;fontSize=14;" parent="1" edge="1">
          <mxGeometry width="50" height="50" relative="1" as="geometry">
            <mxPoint x="259.65999999999997" y="360" as="sourcePoint" />
            <mxPoint x="259.65999999999997" y="330" as="targetPoint" />
          </mxGeometry>
        </mxCell>
        <mxCell id="Ht7AXFtxAu75nitfYA8T-44" value="" style="shape=ext;double=1;whiteSpace=wrap;html=1;aspect=fixed;dashed=1;fontSize=14;strokeWidth=1;fillColor=#E6E6E6;" parent="1" vertex="1">
          <mxGeometry x="175.5" y="70" width="170" height="170" as="geometry" />
        </mxCell>
        <mxCell id="Ht7AXFtxAu75nitfYA8T-22" value="" style="verticalLabelPosition=bottom;verticalAlign=top;html=1;shape=mxgraph.basic.layered_rect;dx=10;outlineConnect=0;fontSize=14;strokeWidth=1;" parent="1" vertex="1">
          <mxGeometry x="240" y="174" width="80" height="46" as="geometry" />
        </mxCell>
        <mxCell id="Ht7AXFtxAu75nitfYA8T-45" value="go routines" style="text;html=1;strokeColor=none;fillColor=none;align=center;verticalAlign=middle;whiteSpace=wrap;rounded=0;dashed=1;fontSize=10;" parent="1" vertex="1">
          <mxGeometry x="236" y="184" width="75" height="20" as="geometry" />
        </mxCell>
        <mxCell id="Ht7AXFtxAu75nitfYA8T-47" value="" style="edgeStyle=orthogonalEdgeStyle;rounded=0;jumpStyle=gap;orthogonalLoop=1;jettySize=auto;html=1;fontSize=10;entryX=0.5;entryY=1;entryDx=0;entryDy=0;" parent="1" source="Ht7AXFtxAu75nitfYA8T-7" target="Ht7AXFtxAu75nitfYA8T-45" edge="1">
          <mxGeometry relative="1" as="geometry">
            <Array as="points">
              <mxPoint x="260" y="257" />
              <mxPoint x="274" y="257" />
            </Array>
          </mxGeometry>
        </mxCell>
        <mxCell id="Ht7AXFtxAu75nitfYA8T-48" value="gtemp" style="text;html=1;strokeColor=none;fillColor=none;align=center;verticalAlign=middle;whiteSpace=wrap;rounded=0;dashed=1;fontSize=20;fontColor=#004C99;" parent="1" vertex="1">
          <mxGeometry x="61" y="238" width="40" height="20" as="geometry" />
        </mxCell>
        <mxCell id="Ht7AXFtxAu75nitfYA8T-49" value="Command Line" style="rounded=0;whiteSpace=wrap;html=1;fillColor=#e6d0de;strokeColor=#996185;fontSize=12;gradientColor=#d5739d;" parent="1" vertex="1">
          <mxGeometry x="61" y="160" width="80" height="40" as="geometry" />
        </mxCell>
        <mxCell id="Ht7AXFtxAu75nitfYA8T-54" value="Actor" style="shape=umlActor;verticalLabelPosition=bottom;verticalAlign=top;html=1;outlineConnect=0;dashed=1;fontSize=12;fontColor=#004C99;strokeWidth=1;fillColor=#E6E6E6;" parent="1" vertex="1">
          <mxGeometry x="651" y="232.75" width="30" height="60" as="geometry" />
        </mxCell>
        <mxCell id="Ht7AXFtxAu75nitfYA8T-65" value="" style="rounded=1;absoluteArcSize=1;html=1;arcSize=10;dashed=1;fontSize=12;fontColor=#004C99;strokeWidth=1;fillColor=#E6E6E6;" parent="1" vertex="1">
          <mxGeometry x="200" y="80" width="110" height="80" as="geometry" />
        </mxCell>
        <mxCell id="Ht7AXFtxAu75nitfYA8T-66" value="main" style="html=1;shape=mxgraph.er.anchor;whiteSpace=wrap;" parent="Ht7AXFtxAu75nitfYA8T-65" vertex="1">
          <mxGeometry width="55" height="80" as="geometry" />
        </mxCell>
        <mxCell id="Ht7AXFtxAu75nitfYA8T-67" value="output" style="rounded=1;absoluteArcSize=1;html=1;arcSize=10;whiteSpace=wrap;points=[];strokeColor=inherit;fillColor=inherit;" parent="Ht7AXFtxAu75nitfYA8T-65" vertex="1">
          <mxGeometry x="55" y="4" width="49.5" height="72" as="geometry" />
        </mxCell>
        <mxCell id="Ht7AXFtxAu75nitfYA8T-68" value="CSV files" style="strokeWidth=2;html=1;shape=mxgraph.flowchart.multi-document;whiteSpace=wrap;dashed=1;fontSize=12;fontColor=#004C99;fillColor=#E6E6E6;" parent="1" vertex="1">
          <mxGeometry x="385" y="89" width="88" height="60" as="geometry" />
        </mxCell>
        <mxCell id="Ht7AXFtxAu75nitfYA8T-8" value="fs interface" style="ellipse;whiteSpace=wrap;html=1;fontSize=13;strokeWidth=1;fillColor=#bac8d3;strokeColor=#23445d;" parent="1" vertex="1">
          <mxGeometry x="458" y="310" width="120" height="20" as="geometry" />
        </mxCell>
        <mxCell id="Ht7AXFtxAu75nitfYA8T-70" value="" style="endArrow=none;html=1;" parent="1" target="Ht7AXFtxAu75nitfYA8T-8" edge="1">
          <mxGeometry width="50" height="50" relative="1" as="geometry">
            <mxPoint x="40" y="320" as="sourcePoint" />
            <mxPoint x="720" y="320" as="targetPoint" />
          </mxGeometry>
        </mxCell>
        <mxCell id="Ht7AXFtxAu75nitfYA8T-69" value="&lt;div&gt;signal / watch&lt;br&gt;&lt;/div&gt;" style="ellipse;whiteSpace=wrap;html=1;fontSize=13;strokeWidth=1;fillColor=#bac8d3;strokeColor=#23445d;" parent="1" vertex="1">
          <mxGeometry x="330" y="310" width="120" height="20" as="geometry" />
        </mxCell>
        <mxCell id="Ht7AXFtxAu75nitfYA8T-6" value="" style="ellipse;whiteSpace=wrap;html=1;fontSize=16;strokeWidth=1;fillColor=#bac8d3;strokeColor=#23445d;" parent="1" vertex="1">
          <mxGeometry x="201" y="310" width="120" height="20" as="geometry" />
        </mxCell>
        <mxCell id="Ht7AXFtxAu75nitfYA8T-7" value="sysfs node" style="text;html=1;align=center;verticalAlign=middle;resizable=0;points=[];autosize=1;strokeColor=none;fontSize=13;" parent="1" vertex="1">
          <mxGeometry x="220" y="310" width="80" height="20" as="geometry" />
        </mxCell>
        <mxCell id="Ht7AXFtxAu75nitfYA8T-73" value="" style="strokeWidth=2;html=1;shape=mxgraph.flowchart.direct_data;whiteSpace=wrap;dashed=1;fontSize=12;fontColor=#004C99;fillColor=#E6E6E6;" parent="1" vertex="1">
          <mxGeometry x="370" y="190" width="103" height="19.5" as="geometry" />
        </mxCell>
        <mxCell id="Ht7AXFtxAu75nitfYA8T-75" value="" style="endArrow=classic;html=1;fontSize=12;fontColor=#004C99;exitX=1;exitY=0.75;exitDx=0;exitDy=0;entryX=0.048;entryY=0.504;entryDx=0;entryDy=0;entryPerimeter=0;" parent="1" source="Ht7AXFtxAu75nitfYA8T-45" target="Ht7AXFtxAu75nitfYA8T-21" edge="1">
          <mxGeometry width="50" height="50" relative="1" as="geometry">
            <mxPoint x="340" y="199" as="sourcePoint" />
            <mxPoint x="480" y="200" as="targetPoint" />
          </mxGeometry>
        </mxCell>
        <mxCell id="Ht7AXFtxAu75nitfYA8T-76" value="" style="endArrow=classic;html=1;fontSize=12;fontColor=#004C99;" parent="1" edge="1">
          <mxGeometry width="50" height="50" relative="1" as="geometry">
            <mxPoint x="517.58" y="232.75" as="sourcePoint" />
            <mxPoint x="518" y="310" as="targetPoint" />
          </mxGeometry>
        </mxCell>
        <mxCell id="Ht7AXFtxAu75nitfYA8T-77" value="" style="edgeStyle=elbowEdgeStyle;elbow=vertical;endArrow=classic;html=1;fontSize=12;fontColor=#004C99;exitX=0.5;exitY=0;exitDx=0;exitDy=0;" parent="1" source="Ht7AXFtxAu75nitfYA8T-69" target="Ht7AXFtxAu75nitfYA8T-44" edge="1">
          <mxGeometry width="50" height="50" relative="1" as="geometry">
            <mxPoint x="390" y="204" as="sourcePoint" />
            <mxPoint x="330" y="154" as="targetPoint" />
            <Array as="points">
              <mxPoint x="360" y="230" />
            </Array>
          </mxGeometry>
        </mxCell>
        <mxCell id="Ht7AXFtxAu75nitfYA8T-78" value="" style="shape=flexArrow;endArrow=classic;html=1;fontSize=12;fontColor=#004C99;endWidth=12.5;endSize=4.683333333333334;" parent="1" edge="1">
          <mxGeometry width="50" height="50" relative="1" as="geometry">
            <mxPoint x="345.5" y="120" as="sourcePoint" />
            <mxPoint x="385.5" y="119.57999999999998" as="targetPoint" />
          </mxGeometry>
        </mxCell>
        <mxCell id="Ht7AXFtxAu75nitfYA8T-82" value="" style="edgeStyle=elbowEdgeStyle;elbow=vertical;endArrow=classic;html=1;fontSize=12;fontColor=#004C99;entryX=0.667;entryY=0.042;entryDx=0;entryDy=0;entryPerimeter=0;" parent="1" source="Ht7AXFtxAu75nitfYA8T-54" target="Ht7AXFtxAu75nitfYA8T-69" edge="1">
          <mxGeometry width="50" height="50" relative="1" as="geometry">
            <mxPoint x="668" y="280" as="sourcePoint" />
            <mxPoint x="458" y="310" as="targetPoint" />
            <Array as="points">
              <mxPoint x="528" y="290" />
            </Array>
          </mxGeometry>
        </mxCell>
        <mxCell id="Ht7AXFtxAu75nitfYA8T-85" value="" style="fontColor=#0066CC;verticalAlign=top;verticalLabelPosition=bottom;labelPosition=center;align=center;html=1;outlineConnect=0;fillColor=#CCCCCC;strokeColor=#6881B3;gradientColor=none;gradientDirection=north;strokeWidth=2;shape=mxgraph.networks.pc;dashed=1;fontSize=12;" parent="1" vertex="1">
          <mxGeometry x="620" y="57.42" width="100" height="70" as="geometry" />
        </mxCell>
        <mxCell id="Ht7AXFtxAu75nitfYA8T-86" value="" style="fontColor=#0066CC;verticalAlign=top;verticalLabelPosition=bottom;labelPosition=center;align=center;html=1;outlineConnect=0;fillColor=#CCCCCC;strokeColor=#6881B3;gradientColor=none;gradientDirection=north;strokeWidth=2;shape=mxgraph.networks.laptop;dashed=1;fontSize=12;" parent="1" vertex="1">
          <mxGeometry x="616" y="149" width="100" height="55" as="geometry" />
        </mxCell>
        <mxCell id="Ht7AXFtxAu75nitfYA8T-88" value="&lt;div&gt;HTTP &lt;br&gt;&lt;/div&gt;&lt;div&gt;Server&lt;/div&gt;" style="label;whiteSpace=wrap;html=1;image=img/clipart/Gear_128x128.png;dashed=1;fontSize=12;fontColor=#004C99;strokeWidth=1;fillColor=#E6E6E6;" parent="1" vertex="1">
          <mxGeometry x="487" y="89" width="100" height="50" as="geometry" />
        </mxCell>
        <mxCell id="Ht7AXFtxAu75nitfYA8T-91" value="" style="shape=flexArrow;endArrow=classic;html=1;fontSize=12;fontColor=#004C99;endWidth=10;endSize=5.408333333333334;" parent="1" source="Ht7AXFtxAu75nitfYA8T-88" edge="1">
          <mxGeometry width="50" height="50" relative="1" as="geometry">
            <mxPoint x="590" y="104" as="sourcePoint" />
            <mxPoint x="620" y="89" as="targetPoint" />
          </mxGeometry>
        </mxCell>
        <mxCell id="Ht7AXFtxAu75nitfYA8T-94" value="" style="shape=flexArrow;endArrow=classic;html=1;fontSize=12;fontColor=#004C99;width=10;endSize=3.019047619047619;endWidth=7.142857142857142;" parent="1" target="Ht7AXFtxAu75nitfYA8T-86" edge="1">
          <mxGeometry width="50" height="50" relative="1" as="geometry">
            <mxPoint x="590" y="127.41999999999999" as="sourcePoint" />
            <mxPoint x="620" y="157.42" as="targetPoint" />
          </mxGeometry>
        </mxCell>
      </root>
    </mxGraphModel>
  </diagram>
</mxfile>
